<?xml version="1.0" encoding="UTF-8"?>
<svg width="572px" height="98px" viewBox="0 0 572 98" version="1.1" xmlns="http://www.w3.org/2000/svg" xmlns:xlink="http://www.w3.org/1999/xlink">
    <!-- Generator: Sketch 57.1 (83088) - https://sketch.com -->
    <title>Artboard Copy</title>
    <desc>Created with Sketch.</desc>
    <g id="Artboard-Copy" stroke="none" stroke-width="1" fill="none" fill-rule="evenodd">
        <g id="black" fill="#FFFFFF" fill-rule="nonzero">
            <path d="M84.2637766,58.5609756 C82.5484652,59.6413659 80.528476,59.7752195 78.9930923,58.9123415 C77.0426752,57.8152195 75.9703056,55.2457073 75.9703056,51.6722927 L75.9703056,40.9807317 C75.9703056,35.8178049 73.921528,32.144 70.4957031,31.1520488 C64.6900335,29.4669268 60.3237861,36.544439 58.6828448,39.2023902 L48.4437547,55.742878 L48.4437547,35.5261951 C48.328601,30.8747805 46.8124096,28.0925366 43.9335651,27.253561 C42.0287297,26.6990244 39.1786737,26.9213171 36.410185,31.1424878 L13.4705929,67.8422927 C10.399529,62.0334988 8.79858442,55.5653972 8.80683298,49 C8.80683298,26.8926341 26.5885274,8.90843902 48.4437547,8.90843902 C70.2989821,8.90843902 88.0782455,26.8926341 88.0782455,49 C88.0782455,49.0382439 88.0878417,49.0717073 88.0902407,49.107561 C88.0902407,49.1458049 88.0830436,49.1792683 88.0854426,49.2175122 C88.2917598,53.498439 86.9003183,56.9045366 84.2637766,58.5633659 L84.2637766,58.5609756 Z M96.8851105,49.0023902 L96.8851105,49 L96.8851105,48.8900488 L96.8827114,48.7800976 C96.7603605,21.8563902 75.0802629,0 48.4413557,0 C21.7328765,0 0,21.9806829 0,49 C0,76.0169268 21.7328765,98 48.4437547,98 C60.7004349,98 72.3981395,93.3581463 81.3777351,84.9325366 C83.1626186,83.2593659 83.2681763,80.4412683 81.6128407,78.6390244 C80.8257826,77.7742877 79.7224708,77.2616339 78.5516999,77.2166655 C77.3809288,77.1716972 76.2412788,77.5982006 75.3897387,78.4 C68.111252,85.2671134 58.4677865,89.0934239 48.4437547,89.091561 C36.7412521,89.091561 26.2118786,83.9310244 18.9499935,75.7468293 L39.6368898,42.6515122 L39.6368898,57.908439 C39.6368898,65.2369268 42.4893448,67.6056585 44.8811848,68.2988293 C47.2754237,68.992 50.9339552,68.5187317 54.7748135,62.3040976 L66.1534461,43.9255122 C66.5180997,43.3327317 66.8539649,42.8212195 67.1610417,42.3790244 L67.1610417,51.6722927 C67.1610417,58.5227317 69.9151362,64.0011707 74.7156093,66.6997561 C79.0434721,69.1330244 84.484488,68.913122 88.9179085,66.1260976 C94.2917514,62.7439024 97.1873891,56.5125366 96.8851105,49.0023902 Z M164.329238,32.261122 C165.492771,32.9662439 166.500367,34.5342439 166.500367,35.946878 C166.500367,38.22 164.561945,40.101122 162.390817,40.101122 C161.848634,40.101122 161.306452,39.9457561 160.841039,39.788 C158.281266,37.906878 155.025773,36.652 151.614342,36.652 C143.553578,36.652 137.971019,43.237122 137.971019,51.3902439 C137.971019,59.5457561 143.553578,66.052 151.614342,66.052 C155.644724,66.052 159.212092,64.405122 161.925403,61.8977561 C162.626381,61.3957284 163.465993,61.1218927 164.329238,61.1137561 C166.500367,61.1137561 168.206082,62.837122 168.206082,65.0337561 C168.206082,66.444 167.352025,67.698878 166.26766,68.404 C162.390817,71.6977561 157.120132,73.892 151.69351,73.892 C139.290489,73.892 129.209735,63.7 129.209735,51.156 C129.209735,38.612 139.28809,28.42 151.69351,28.42 C156.345243,28.42 160.76187,29.8302439 164.329238,32.261122 Z M187.009735,41.748 C195.459143,41.748 202.59148,48.882878 202.59148,57.6622439 C202.59148,66.444 195.459143,73.892 187.009735,73.892 C178.171682,73.892 170.806638,66.444 170.806638,57.6622439 C170.806638,48.882878 178.171682,41.748 187.009735,41.748 Z M186.930566,66.052 C190.653872,66.052 193.830197,62.524 193.830197,57.741122 C193.830197,52.9606341 190.653872,49.98 186.930566,49.98 C182.900184,49.98 179.565523,52.8817561 179.565523,57.741122 C179.565523,62.524 182.900184,66.052 186.930566,66.052 Z M207.905347,69.0302439 L207.905347,46.6097561 C207.905347,44.178878 209.843769,42.14 212.247604,42.14 C214.651439,42.14 216.66663,44.178878 216.66663,46.6097561 L216.66663,69.0302439 C216.66663,71.461122 214.651439,73.5 212.247604,73.5 C209.843769,73.5 207.905347,71.461122 207.905347,69.0302439 Z M207.209626,33.6737561 C207.209626,30.772 209.455125,28.42 212.247604,28.42 C215.114453,28.42 217.441519,30.772 217.441519,33.6737561 C217.441519,36.4942439 215.114453,38.7697561 212.247604,38.7697561 C209.455125,38.7697561 207.209626,36.4942439 207.209626,33.6737561 Z M233.455091,56.8782439 L233.455091,69.0302439 C233.455091,71.461122 231.4399,73.5 229.033666,73.5 C226.63223,73.5 224.691409,71.461122 224.691409,69.0302439 L224.691409,45.589122 C224.691409,43.708 226.243586,42.14 228.105239,42.14 C229.964493,42.14 231.4399,43.708 231.4399,45.589122 C235.004869,42.2977561 238.104425,41.748 241.050443,41.748 C249.811726,41.748 253.68857,48.333122 253.68857,55.781122 L253.68857,69.0302439 C253.68857,71.461122 251.673379,73.5 249.269544,73.5 C246.865708,73.5 244.927287,71.461122 244.927287,69.0302439 L244.927287,56.8782439 C244.927287,53.037122 244.461873,49.8222439 238.958482,49.8222439 C235.081639,49.8222439 233.452692,53.037122 233.452692,56.8782439 L233.455091,56.8782439 Z M282.181933,61.5057561 C281.174337,61.5057561 280.478616,61.034878 279.934035,60.4062439 L269.699743,49.3537561 L269.699743,69.0302439 C269.699743,71.461122 267.684552,73.5 265.280717,73.5 C262.876882,73.5 260.93846,71.461122 260.93846,69.0302439 L260.93846,30.0692683 C261.195248,29.3967844 261.847764,28.9569941 262.569805,28.9694856 C263.342295,28.9694856 263.961246,29.5983902 264.429059,30.0692683 L280.708924,48.3355122 C281.174337,48.8852683 281.793289,49.1983902 282.105163,49.1983902 C282.414639,49.1983902 283.033591,48.8852683 283.499004,48.3379024 L299.781268,30.0692683 C300.246681,29.5983902 300.865633,28.9694856 301.640522,28.9694856 C302.415411,28.9694856 303.036761,29.4406341 303.269468,30.0692683 L303.269468,69.0302439 C303.269468,71.461122 301.331046,73.5 298.927211,73.5 C296.523376,73.5 294.508185,71.461122 294.508185,69.0302439 L294.508185,49.3537561 L284.276292,60.4062439 C283.73171,61.034878 283.033591,61.5057561 282.181933,61.5057561 Z M324.321018,66.052 C328.274631,66.052 331.606893,62.524 331.606893,57.741122 C331.606893,52.9606341 328.197862,49.8222439 324.321018,49.8222439 C320.444174,49.8222439 317.342219,53.037122 317.342219,57.741122 C317.342219,62.3662439 320.444174,66.052 324.321018,66.052 Z M333.624484,70.050878 L333.466147,69.0302439 C331.762831,72.4004878 326.33381,73.892 322.84561,73.892 C314.626509,73.892 308.580936,66.444 308.580936,57.6622439 C308.580936,48.882878 314.782447,41.748 323.311023,41.748 C324.784032,41.748 329.668472,42.14 333.466147,46.6097561 L333.622085,45.589122 C333.622085,43.708 335.095093,42.14 336.956746,42.14 C338.816,42.14 340.365778,43.708 340.365778,45.589122 L340.365778,70.050878 C340.365778,71.932 338.816,73.5 336.954347,73.5 C335.095093,73.5 333.619686,71.932 333.619686,70.050878 L333.624484,70.050878 Z M364.67522,49.8222439 L363.746793,49.8222439 C358.241003,50.1377561 357.156638,53.2737561 357.156638,56.8782439 L357.156638,69.0302439 C357.156638,71.461122 355.141447,73.5 352.737612,73.5 C350.333777,73.5 348.395355,71.461122 348.395355,69.0302439 L348.395355,45.589122 C348.395355,43.708 349.945133,42.14 351.806785,42.14 C353.668438,42.14 355.141447,43.708 355.141447,45.589122 C358.39694,42.532 361.033482,41.9057561 363.746793,41.748 L364.598451,41.748 C366.69281,41.748 368.628833,43.5502439 368.628833,45.8257561 C368.628833,47.941122 366.769579,49.8222439 364.67522,49.8222439 Z M398.441666,66.9937561 C398.83031,67.62 399.063017,68.325122 399.063017,69.109122 C399.063017,71.3822439 396.968657,73.5 394.72076,73.5 C393.170982,73.5 391.851511,72.324 390.843916,71.069122 L380.76796,59.388 L380.76796,69.0302439 C380.76796,71.461122 378.75037,73.5 376.346535,73.5 C373.9427,73.5 372.004278,71.461122 372.004278,69.0302439 L372.004278,33.4395122 C372.004278,31.0062439 373.9427,28.9697561 376.346535,28.9697561 C378.75037,28.9697561 380.765561,31.0062439 380.765561,33.4395122 L380.765561,55.6257561 L390.843916,44.492 C391.851511,43.316 393.091813,42.14 394.64399,42.14 C396.815119,42.14 398.83031,44.178878 398.83031,46.452 C398.83031,47.157122 398.674373,47.8622439 398.285729,48.490878 L390.301733,57.1913659 L398.441666,66.9913659 L398.441666,66.9937561 Z M409.338092,55.1 L421.97382,55.1 C421.97382,51.3575381 419.007226,49.5 415.655956,49.5 C412.304686,49.5 409.338092,51.4360014 409.338092,55.1 Z M427.090966,60.485122 L409.338092,60.485122 C409.338092,65.738878 414.37607,66.522878 416.623968,66.522878 C418.255313,66.522878 420.57998,66.2097561 422.362464,65.4233659 C422.904647,65.0337561 423.835473,64.7182439 424.610362,64.7182439 C426.548784,64.7182439 428.175331,66.3675122 428.175331,68.3275122 C428.175331,69.658878 427.323673,70.834878 426.239308,71.461122 C423.525997,73.421122 420.035398,73.892 416.703136,73.892 C407.865084,73.892 400.50004,69.1115122 400.50004,58.0542439 C400.50004,49.3537561 404.995835,41.748 415.462834,41.748 C423.912242,41.748 430.34646,47.236 430.502397,57.036 C430.502397,58.917122 428.952619,60.485122 427.090966,60.485122 Z M451.477178,73.892 L449.073343,73.892 C442.40402,73.892 438.529575,70.9902439 438.529575,60.564 L438.529575,49.8222439 L436.281677,49.8222439 C434.187318,49.8222439 432.328064,47.941122 432.328064,45.8257561 C432.328064,43.5502439 434.187318,41.748 436.281677,41.748 L438.529575,41.748 L438.529575,33.437122 C438.529575,31.0062439 440.467997,28.9673659 442.871832,28.9673659 C445.273268,28.9673659 447.290858,31.0062439 447.290858,33.437122 L447.290858,41.748 L450.932596,41.748 C453.026956,41.748 454.888608,43.5502439 454.888608,45.8257561 C454.888608,47.941122 453.026956,49.8222439 450.932596,49.8222439 L447.290858,49.8222439 L447.290858,58.8382439 C447.290858,64.797122 447.600334,66.052 450.236876,66.052 L451.477178,66.052 C453.569138,66.052 455.351622,67.7777561 455.351622,69.972 C455.351622,72.0897561 453.569138,73.892 451.477178,73.892 Z M493.925739,32.261122 C495.086873,32.9662439 496.096867,34.5342439 496.096867,35.946878 C496.096867,38.22 494.158445,40.101122 491.987317,40.101122 C491.445135,40.101122 490.900553,39.9457561 490.437539,39.788 C487.877767,37.906878 484.622273,36.652 481.210843,36.652 C473.150078,36.652 467.56512,43.237122 467.56512,51.3902439 C467.56512,59.5457561 473.147679,66.052 481.210843,66.052 C485.241225,66.052 488.808593,64.405122 491.521904,61.8977561 C492.222881,61.3957284 493.062493,61.1218927 493.925739,61.1137561 C496.096867,61.1137561 497.800184,62.837122 497.800184,65.0337561 C497.800184,66.444 496.948526,67.698878 495.864161,68.404 C491.987317,71.6977561 486.714234,73.892 481.287612,73.892 C468.88459,73.892 458.806236,63.7 458.806236,51.156 C458.806236,38.612 468.882191,28.42 481.287612,28.42 C485.941744,28.42 490.358371,29.8302439 493.925739,32.261122 Z M516.140822,66.052 C520.094435,66.052 523.426697,62.524 523.426697,57.741122 C523.426697,52.9606341 520.015267,49.8222439 516.138423,49.8222439 C512.263978,49.8222439 509.162023,53.037122 509.162023,57.741122 C509.162023,62.3662439 512.263978,66.052 516.138423,66.052 L516.140822,66.052 Z M525.441888,70.050878 L525.28835,69.0302439 C523.582635,72.4004878 518.156013,73.892 514.665414,73.892 C506.448712,73.892 500.40074,66.444 500.40074,57.6622439 C500.40074,48.882878 506.60465,41.748 515.130827,41.748 C516.603836,41.748 521.488275,42.14 525.28835,46.6097561 L525.441888,45.589122 C525.441888,43.708 526.914897,42.14 528.77655,42.14 C530.635804,42.14 532.18798,43.708 532.18798,45.589122 L532.18798,70.050878 C532.18798,71.932 530.635804,73.5 528.77655,73.5 C526.914897,73.5 525.441888,71.932 525.441888,70.050878 Z M556.262317,66.052 C560.139161,66.052 563.238717,62.3662439 563.238717,57.741122 C563.238717,53.037122 560.139161,49.8222439 556.262317,49.8222439 C552.385473,49.8222439 548.974043,52.9582439 548.974043,57.741122 C548.974043,62.524 552.308704,66.052 556.262317,66.052 Z M548.974043,71.3057561 L548.974043,82.437122 C548.974043,84.868 546.958851,86.906878 544.555016,86.906878 C542.15358,86.906878 540.212759,84.868 540.212759,82.437122 L540.212759,45.589122 C540.212759,43.708 541.764936,42.14 543.626589,42.14 C545.485843,42.14 546.961251,43.708 546.961251,45.9022439 C550.214345,42.532 554.247126,41.748 557.269913,41.748 C565.798489,41.748 572,48.882878 572,57.6622439 C572,66.444 565.954427,73.892 557.735326,73.892 C555.177952,73.892 551.377878,73.108 548.974043,71.3057561 Z" id="Full-logo-/-black"></path>
        </g>
    </g>
</svg>